<?xml version="1.0" encoding="UTF-8" standalone="no"?>
<!-- Created with Inkscape (http://www.inkscape.org/) -->

<svg
   width="6.8489308in"
   height="0.55868888in"
   viewBox="0 0 173.96284 14.190698"
   version="1.1"
   id="svg1"
   inkscape:version="1.3.2 (091e20e, 2023-11-25)"
   sodipodi:docname="eml-clifton-strengths.svg"
   xmlns:inkscape="http://www.inkscape.org/namespaces/inkscape"
   xmlns:sodipodi="http://sodipodi.sourceforge.net/DTD/sodipodi-0.dtd"
   xmlns="http://www.w3.org/2000/svg"
   xmlns:svg="http://www.w3.org/2000/svg">
  <sodipodi:namedview
     id="namedview1"
     pagecolor="#ffffff"
     bordercolor="#666666"
     borderopacity="1.0"
     inkscape:showpageshadow="2"
     inkscape:pageopacity="0.0"
     inkscape:pagecheckerboard="0"
     inkscape:deskcolor="#d1d1d1"
     inkscape:document-units="mm"
     showborder="false"
     inkscape:zoom="1.022409"
     inkscape:cx="238.163"
     inkscape:cy="8.8027391"
     inkscape:window-width="1440"
     inkscape:window-height="847"
     inkscape:window-x="0"
     inkscape:window-y="25"
     inkscape:window-maximized="1"
     inkscape:current-layer="layer1" />
  <defs
     id="defs1">
    <clipPath
       clipPathUnits="userSpaceOnUse"
       id="clipPath167">
      <path
         d="m 58.5,486.2564 h 495 v 48.2612 h -495 z"
         transform="matrix(0.85244227,0,0,-0.85244227,-49.867873,455.64539)"
         clip-rule="evenodd"
         id="path167" />
    </clipPath>
    <clipPath
       clipPathUnits="userSpaceOnUse"
       id="clipPath169">
      <path
         d="m 58.5,486.2564 h 495 v 48.2612 h -495 z"
         transform="matrix(0.85244227,0,0,-0.85244227,-49.867873,455.64539)"
         clip-rule="evenodd"
         id="path169" />
    </clipPath>
    <clipPath
       clipPathUnits="userSpaceOnUse"
       id="clipPath171">
      <path
         d="m 58.5,486.2564 h 495 v 48.2612 h -495 z"
         transform="matrix(0.85244227,0,0,-0.85244227,-49.867873,455.64539)"
         clip-rule="evenodd"
         id="path171" />
    </clipPath>
    <clipPath
       clipPathUnits="userSpaceOnUse"
       id="clipPath173">
      <path
         d="m 58.5,486.2564 h 495 v 48.2612 h -495 z"
         transform="matrix(0.85244227,0,0,-0.85244227,-49.867873,455.64539)"
         clip-rule="evenodd"
         id="path173" />
    </clipPath>
    <clipPath
       clipPathUnits="userSpaceOnUse"
       id="clipPath175">
      <path
         d="m 58.5,486.2564 h 495 v 48.2612 h -495 z"
         transform="matrix(0.85244227,0,0,-0.85244227,-49.867873,455.64539)"
         clip-rule="evenodd"
         id="path175" />
    </clipPath>
    <clipPath
       clipPathUnits="userSpaceOnUse"
       id="clipPath177">
      <path
         d="m 58.5,486.2564 h 495 v 48.2612 h -495 z"
         transform="matrix(0.85244227,0,0,-0.85244227,-49.867873,455.64539)"
         clip-rule="evenodd"
         id="path177" />
    </clipPath>
    <clipPath
       clipPathUnits="userSpaceOnUse"
       id="clipPath179">
      <path
         d="m 58.5,486.2564 h 495 v 48.2612 h -495 z"
         transform="matrix(0.85244227,0,0,-0.85244227,-49.867873,455.64539)"
         clip-rule="evenodd"
         id="path179" />
    </clipPath>
    <clipPath
       clipPathUnits="userSpaceOnUse"
       id="clipPath181">
      <path
         d="m 58.5,486.2564 h 495 v 48.2612 h -495 z"
         transform="matrix(0.85244227,0,0,-0.85244227,-49.867873,455.64539)"
         clip-rule="evenodd"
         id="path181" />
    </clipPath>
    <clipPath
       clipPathUnits="userSpaceOnUse"
       id="clipPath183">
      <path
         d="m 58.5,486.2564 h 495 v 48.2612 h -495 z"
         transform="matrix(0.85244227,0,0,-0.85244227,-49.867873,455.64539)"
         clip-rule="evenodd"
         id="path183" />
    </clipPath>
    <clipPath
       clipPathUnits="userSpaceOnUse"
       id="clipPath185">
      <path
         d="m 58.5,486.2564 h 495 v 48.2612 h -495 z"
         transform="matrix(0.85244227,0,0,-0.85244227,-49.867873,455.64539)"
         clip-rule="evenodd"
         id="path185" />
    </clipPath>
    <clipPath
       clipPathUnits="userSpaceOnUse"
       id="clipPath187">
      <path
         d="m 58.5,486.2564 h 495 v 48.2612 h -495 z"
         transform="matrix(0.85244227,0,0,-0.85244227,-49.867873,455.64539)"
         clip-rule="evenodd"
         id="path187" />
    </clipPath>
    <clipPath
       clipPathUnits="userSpaceOnUse"
       id="clipPath189">
      <path
         d="m 58.5,486.2564 h 495 v 48.2612 h -495 z"
         transform="matrix(0.85244227,0,0,-0.85244227,-49.867873,455.64539)"
         clip-rule="evenodd"
         id="path189" />
    </clipPath>
    <clipPath
       clipPathUnits="userSpaceOnUse"
       id="clipPath191">
      <path
         d="m 58.5,486.2564 h 495 v 48.2612 h -495 z"
         transform="matrix(0.85244227,0,0,-0.85244227,-49.867873,455.64539)"
         clip-rule="evenodd"
         id="path191" />
    </clipPath>
    <clipPath
       clipPathUnits="userSpaceOnUse"
       id="clipPath193">
      <path
         d="m 58.5,486.2564 h 495 v 48.2612 h -495 z"
         transform="matrix(0.85244227,0,0,-0.85244227,-49.867873,455.64539)"
         clip-rule="evenodd"
         id="path193" />
    </clipPath>
    <clipPath
       clipPathUnits="userSpaceOnUse"
       id="clipPath195">
      <path
         d="m 58.5,486.2564 h 495 v 48.2612 h -495 z"
         transform="matrix(0.85244227,0,0,-0.85244227,-49.867873,455.64539)"
         clip-rule="evenodd"
         id="path195" />
    </clipPath>
    <clipPath
       clipPathUnits="userSpaceOnUse"
       id="clipPath197">
      <path
         d="m 58.5,486.2564 h 495 v 48.2612 h -495 z"
         transform="matrix(0.85244227,0,0,-0.85244227,-49.867873,455.64539)"
         clip-rule="evenodd"
         id="path197" />
    </clipPath>
    <clipPath
       clipPathUnits="userSpaceOnUse"
       id="clipPath199">
      <path
         d="m 58.5,486.2564 h 495 v 48.2612 h -495 z"
         transform="matrix(0.85244227,0,0,-0.85244227,-49.867873,455.64539)"
         clip-rule="evenodd"
         id="path199" />
    </clipPath>
    <clipPath
       clipPathUnits="userSpaceOnUse"
       id="clipPath201">
      <path
         d="m 58.5,486.2564 h 495 v 48.2612 h -495 z"
         transform="matrix(0.85244227,0,0,-0.85244227,-49.867873,455.64539)"
         clip-rule="evenodd"
         id="path201" />
    </clipPath>
    <clipPath
       clipPathUnits="userSpaceOnUse"
       id="clipPath203">
      <path
         d="m 58.5,486.2564 h 495 v 48.2612 h -495 z"
         transform="matrix(0.85244227,0,0,-0.85244227,-49.867873,455.64539)"
         clip-rule="evenodd"
         id="path203" />
    </clipPath>
    <clipPath
       clipPathUnits="userSpaceOnUse"
       id="clipPath205">
      <path
         d="m 58.5,486.2564 h 495 v 48.2612 h -495 z"
         transform="matrix(0.85244227,0,0,-0.85244227,-49.867873,455.64539)"
         clip-rule="evenodd"
         id="path205" />
    </clipPath>
    <clipPath
       clipPathUnits="userSpaceOnUse"
       id="clipPath207">
      <path
         d="m 58.5,486.2564 h 495 v 48.2612 h -495 z"
         transform="matrix(0.85244227,0,0,-0.85244227,-49.867873,455.64539)"
         clip-rule="evenodd"
         id="path207" />
    </clipPath>
    <clipPath
       clipPathUnits="userSpaceOnUse"
       id="clipPath209">
      <path
         d="m 58.5,486.2564 h 495 v 48.2612 h -495 z"
         transform="matrix(0.85244227,0,0,-0.85244227,-49.867873,455.64539)"
         clip-rule="evenodd"
         id="path209" />
    </clipPath>
    <clipPath
       clipPathUnits="userSpaceOnUse"
       id="clipPath211">
      <path
         d="m 58.5,486.2564 h 495 v 48.2612 h -495 z"
         transform="matrix(0.85244227,0,0,-0.85244227,-49.867873,455.64539)"
         clip-rule="evenodd"
         id="path211" />
    </clipPath>
    <clipPath
       clipPathUnits="userSpaceOnUse"
       id="clipPath213">
      <path
         d="m 58.5,486.2564 h 495 v 48.2612 h -495 z"
         transform="matrix(0.85244227,0,0,-0.85244227,-49.867873,455.64539)"
         clip-rule="evenodd"
         id="path213" />
    </clipPath>
    <clipPath
       clipPathUnits="userSpaceOnUse"
       id="clipPath215">
      <path
         d="m 58.5,486.2564 h 495 v 48.2612 h -495 z"
         transform="matrix(0.85244227,0,0,-0.85244227,-49.867873,455.64539)"
         clip-rule="evenodd"
         id="path215" />
    </clipPath>
    <clipPath
       clipPathUnits="userSpaceOnUse"
       id="clipPath217">
      <path
         d="m 58.5,486.2564 h 495 v 48.2612 h -495 z"
         transform="matrix(0.85244227,0,0,-0.85244227,-49.867873,455.64539)"
         clip-rule="evenodd"
         id="path217" />
    </clipPath>
    <clipPath
       clipPathUnits="userSpaceOnUse"
       id="clipPath219">
      <path
         d="m 58.5,486.2564 h 495 v 48.2612 h -495 z"
         transform="matrix(0.85244227,0,0,-0.85244227,-49.867873,455.64539)"
         clip-rule="evenodd"
         id="path219" />
    </clipPath>
    <clipPath
       clipPathUnits="userSpaceOnUse"
       id="clipPath221">
      <path
         d="m 58.5,486.2564 h 495 v 48.2612 h -495 z"
         transform="matrix(0.85244227,0,0,-0.85244227,-49.867873,455.64539)"
         clip-rule="evenodd"
         id="path221" />
    </clipPath>
    <clipPath
       clipPathUnits="userSpaceOnUse"
       id="clipPath223">
      <path
         d="m 58.5,486.2564 h 495 v 48.2612 h -495 z"
         transform="matrix(0.85244227,0,0,-0.85244227,-49.867873,455.64539)"
         clip-rule="evenodd"
         id="path223" />
    </clipPath>
    <clipPath
       clipPathUnits="userSpaceOnUse"
       id="clipPath225">
      <path
         d="m 58.5,486.2564 h 495 v 48.2612 h -495 z"
         transform="matrix(0.85244227,0,0,-0.85244227,-49.867873,455.64539)"
         clip-rule="evenodd"
         id="path225" />
    </clipPath>
    <clipPath
       clipPathUnits="userSpaceOnUse"
       id="clipPath227">
      <path
         d="m 58.5,486.2564 h 495 v 48.2612 h -495 z"
         transform="matrix(0.85244227,0,0,-0.85244227,-49.867873,455.64539)"
         clip-rule="evenodd"
         id="path227" />
    </clipPath>
    <clipPath
       clipPathUnits="userSpaceOnUse"
       id="clipPath229">
      <path
         d="m 58.5,486.2564 h 495 v 48.2612 h -495 z"
         transform="matrix(0.85244227,0,0,-0.85244227,-49.867873,455.64539)"
         clip-rule="evenodd"
         id="path229" />
    </clipPath>
    <clipPath
       clipPathUnits="userSpaceOnUse"
       id="clipPath231">
      <path
         d="m 58.5,486.2564 h 495 v 48.2612 h -495 z"
         transform="matrix(0.85244227,0,0,-0.85244227,-49.867873,455.64539)"
         clip-rule="evenodd"
         id="path231" />
    </clipPath>
    <clipPath
       clipPathUnits="userSpaceOnUse"
       id="clipPath233">
      <path
         d="m 58.5,486.2564 h 495 v 48.2612 h -495 z"
         transform="matrix(0.85244227,0,0,-0.85244227,-49.867873,455.64539)"
         clip-rule="evenodd"
         id="path233" />
    </clipPath>
    <clipPath
       clipPathUnits="userSpaceOnUse"
       id="clipPath235">
      <path
         d="m 58.5,486.2564 h 495 v 48.2612 h -495 z"
         transform="matrix(0.85244227,0,0,-0.85244227,-49.867873,455.64539)"
         clip-rule="evenodd"
         id="path235" />
    </clipPath>
    <clipPath
       clipPathUnits="userSpaceOnUse"
       id="clipPath237">
      <path
         d="m 58.5,486.2564 h 495 v 48.2612 h -495 z"
         transform="matrix(0.85244227,0,0,-0.85244227,-49.867873,455.64539)"
         clip-rule="evenodd"
         id="path237" />
    </clipPath>
  </defs>
  <g
     inkscape:label="Layer 1"
     inkscape:groupmode="layer"
     id="layer1"
     transform="translate(-17.991666,-141.2875)">
    <g
       id="g165"
       transform="matrix(0.26458333,0,0,0.26458333,-3.3079833,49.12913)">
      <path
         id="path166"
         d="m 19.18,4.02 h 3.18 v 31.62 h -3.18 z"
         style="fill:#00945d;fill-opacity:1;fill-rule:nonzero;stroke:none"
         transform="matrix(1.5641333,0,0,1.5641333,78,343.30987)"
         clip-path="url(#clipPath167)" />
      <path
         id="path168"
         d="m 29.86,4.02 h 3.18 v 31.62 h -3.18 z"
         style="fill:#00945d;fill-opacity:1;fill-rule:nonzero;stroke:none"
         transform="matrix(1.5641333,0,0,1.5641333,78,343.30987)"
         clip-path="url(#clipPath169)" />
      <path
         id="path170"
         d="m 40.54,4.02 h 3.18 v 31.62 h -3.18 z"
         style="fill:#7b2481;fill-opacity:1;fill-rule:nonzero;stroke:none"
         transform="matrix(1.5641333,0,0,1.5641333,78,343.30987)"
         clip-path="url(#clipPath171)" />
      <path
         id="path172"
         d="M 51.22,4.02 H 54.4 V 35.64 H 51.22 Z"
         style="fill:#00945d;fill-opacity:1;fill-rule:nonzero;stroke:none"
         transform="matrix(1.5641333,0,0,1.5641333,78,343.30987)"
         clip-path="url(#clipPath173)" />
      <path
         id="path174"
         d="m 61.89,4.02 h 3.18 v 31.62 h -3.18 z"
         style="fill:#00945d;fill-opacity:1;fill-rule:nonzero;stroke:none"
         transform="matrix(1.5641333,0,0,1.5641333,78,343.30987)"
         clip-path="url(#clipPath175)" />
      <path
         id="path176"
         d="m 72.57,4.02 h 3.18 v 31.62 h -3.18 z"
         style="fill:#0070cd;fill-opacity:1;fill-rule:nonzero;stroke:none"
         transform="matrix(1.5641333,0,0,1.5641333,78,343.30987)"
         clip-path="url(#clipPath177)" />
      <path
         id="path178"
         d="m 83.25,4.02 h 3.18 v 31.62 h -3.18 z"
         style="fill:#00945d;fill-opacity:1;fill-rule:nonzero;stroke:none"
         transform="matrix(1.5641333,0,0,1.5641333,78,343.30987)"
         clip-path="url(#clipPath179)" />
      <path
         id="path180"
         d="m 93.93,4.02 h 3.18 v 31.62 h -3.18 z"
         style="fill:#7b2481;fill-opacity:1;fill-rule:nonzero;stroke:none"
         transform="matrix(1.5641333,0,0,1.5641333,78,343.30987)"
         clip-path="url(#clipPath181)" />
      <path
         id="path182"
         d="m 104.6,4.02 h 3.18 v 31.62 h -3.18 z"
         style="fill:#7b2481;fill-opacity:1;fill-rule:nonzero;stroke:none"
         transform="matrix(1.5641333,0,0,1.5641333,78,343.30987)"
         clip-path="url(#clipPath183)" />
      <path
         id="path184"
         d="m 115.28,4.02 h 3.18 v 31.62 h -3.18 z"
         style="fill:#0070cd;fill-opacity:1;fill-rule:nonzero;stroke:none"
         transform="matrix(1.5641333,0,0,1.5641333,78,343.30987)"
         clip-path="url(#clipPath185)" />
      <path
         id="path186"
         d="m 153.93,4.02 h 3.18 v 31.62 h -3.18 z"
         style="fill:#7b2481;fill-opacity:1;fill-rule:nonzero;stroke:none"
         transform="matrix(1.5641333,0,0,1.5641333,78,343.30987)"
         clip-path="url(#clipPath187)" />
      <path
         id="path188"
         d="m 164.64,4.02 h 3.18 v 31.62 h -3.18 z"
         style="fill:#00945d;fill-opacity:1;fill-rule:nonzero;stroke:none"
         transform="matrix(1.5641333,0,0,1.5641333,78,343.30987)"
         clip-path="url(#clipPath189)" />
      <path
         id="path190"
         d="m 175.36,4.02 h 3.18 v 31.62 h -3.18 z"
         style="fill:#00945d;fill-opacity:1;fill-rule:nonzero;stroke:none"
         transform="matrix(1.5641333,0,0,1.5641333,78,343.30987)"
         clip-path="url(#clipPath191)" />
      <path
         id="path192"
         d="m 186.08,4.02 h 3.18 v 31.62 h -3.18 z"
         style="fill:#7b2481;fill-opacity:1;fill-rule:nonzero;stroke:none"
         transform="matrix(1.5641333,0,0,1.5641333,78,343.30987)"
         clip-path="url(#clipPath193)" />
      <path
         id="path194"
         d="m 196.79,4.02 h 3.18 v 31.62 h -3.18 z"
         style="fill:#e97200;fill-opacity:1;fill-rule:nonzero;stroke:none"
         transform="matrix(1.5641333,0,0,1.5641333,78,343.30987)"
         clip-path="url(#clipPath195)" />
      <path
         id="path196"
         d="m 207.51,4.02 h 3.18 v 31.62 h -3.18 z"
         style="fill:#e97200;fill-opacity:1;fill-rule:nonzero;stroke:none"
         transform="matrix(1.5641333,0,0,1.5641333,78,343.30987)"
         clip-path="url(#clipPath197)" />
      <path
         id="path198"
         d="m 218.23,4.02 h 3.18 v 31.62 h -3.18 z"
         style="fill:#00945d;fill-opacity:1;fill-rule:nonzero;stroke:none"
         transform="matrix(1.5641333,0,0,1.5641333,78,343.30987)"
         clip-path="url(#clipPath199)" />
      <path
         id="path200"
         d="m 228.94,4.02 h 3.18 v 31.62 h -3.18 z"
         style="fill:#7b2481;fill-opacity:1;fill-rule:nonzero;stroke:none"
         transform="matrix(1.5641333,0,0,1.5641333,78,343.30987)"
         clip-path="url(#clipPath201)" />
      <path
         id="path202"
         d="m 239.66,4.02 h 3.18 v 31.62 h -3.18 z"
         style="fill:#7b2481;fill-opacity:1;fill-rule:nonzero;stroke:none"
         transform="matrix(1.5641333,0,0,1.5641333,78,343.30987)"
         clip-path="url(#clipPath203)" />
      <path
         id="path204"
         d="m 250.38,4.02 h 3.18 v 31.62 h -3.18 z"
         style="fill:#0070cd;fill-opacity:1;fill-rule:nonzero;stroke:none"
         transform="matrix(1.5641333,0,0,1.5641333,78,343.30987)"
         clip-path="url(#clipPath205)" />
      <path
         id="path206"
         d="m 261.1,4.02 h 3.18 v 31.62 h -3.18 z"
         style="fill:#e97200;fill-opacity:1;fill-rule:nonzero;stroke:none"
         transform="matrix(1.5641333,0,0,1.5641333,78,343.30987)"
         clip-path="url(#clipPath207)" />
      <path
         id="path208"
         d="m 271.81,4.02 h 3.18 v 31.62 h -3.18 z"
         style="fill:#e97200;fill-opacity:1;fill-rule:nonzero;stroke:none"
         transform="matrix(1.5641333,0,0,1.5641333,78,343.30987)"
         clip-path="url(#clipPath209)" />
      <path
         id="path210"
         d="m 282.53,4.02 h 3.18 v 31.62 h -3.18 z"
         style="fill:#e97200;fill-opacity:1;fill-rule:nonzero;stroke:none"
         transform="matrix(1.5641333,0,0,1.5641333,78,343.30987)"
         clip-path="url(#clipPath211)" />
      <path
         id="path212"
         d="m 293.25,4.02 h 3.18 v 31.62 h -3.18 z"
         style="fill:#e97200;fill-opacity:1;fill-rule:nonzero;stroke:none"
         transform="matrix(1.5641333,0,0,1.5641333,78,343.30987)"
         clip-path="url(#clipPath213)" />
      <path
         id="path214"
         d="m 303.96,4.02 h 3.18 v 31.62 h -3.18 z"
         style="fill:#e97200;fill-opacity:1;fill-rule:nonzero;stroke:none"
         transform="matrix(1.5641333,0,0,1.5641333,78,343.30987)"
         clip-path="url(#clipPath215)" />
      <path
         id="path216"
         d="m 314.68,4.02 h 3.18 v 31.62 h -3.18 z"
         style="fill:#7b2481;fill-opacity:1;fill-rule:nonzero;stroke:none"
         transform="matrix(1.5641333,0,0,1.5641333,78,343.30987)"
         clip-path="url(#clipPath217)" />
      <path
         id="path218"
         d="m 325.4,4.02 h 3.18 v 31.62 h -3.18 z"
         style="fill:#0070cd;fill-opacity:1;fill-rule:nonzero;stroke:none"
         transform="matrix(1.5641333,0,0,1.5641333,78,343.30987)"
         clip-path="url(#clipPath219)" />
      <path
         id="path220"
         d="m 336.11,4.02 h 3.18 v 31.62 h -3.18 z"
         style="fill:#e97200;fill-opacity:1;fill-rule:nonzero;stroke:none"
         transform="matrix(1.5641333,0,0,1.5641333,78,343.30987)"
         clip-path="url(#clipPath221)" />
      <path
         id="path222"
         d="m 346.83,4.02 h 3.18 v 31.62 h -3.18 z"
         style="fill:#7b2481;fill-opacity:1;fill-rule:nonzero;stroke:none"
         transform="matrix(1.5641333,0,0,1.5641333,78,343.30987)"
         clip-path="url(#clipPath223)" />
      <path
         id="path224"
         d="m 357.55,4.02 h 3.18 v 31.62 h -3.18 z"
         style="fill:#0070cd;fill-opacity:1;fill-rule:nonzero;stroke:none"
         transform="matrix(1.5641333,0,0,1.5641333,78,343.30987)"
         clip-path="url(#clipPath225)" />
      <path
         id="path226"
         d="m 368.27,4.02 h 3.18 v 31.62 h -3.18 z"
         style="fill:#0070cd;fill-opacity:1;fill-rule:nonzero;stroke:none"
         transform="matrix(1.5641333,0,0,1.5641333,78,343.30987)"
         clip-path="url(#clipPath227)" />
      <path
         id="path228"
         d="m 378.98,4.02 h 3.18 v 31.62 h -3.18 z"
         style="fill:#0070cd;fill-opacity:1;fill-rule:nonzero;stroke:none"
         transform="matrix(1.5641333,0,0,1.5641333,78,343.30987)"
         clip-path="url(#clipPath229)" />
      <path
         id="path230"
         d="m 389.7,4.02 h 3.18 v 31.62 h -3.18 z"
         style="fill:#0070cd;fill-opacity:1;fill-rule:nonzero;stroke:none"
         transform="matrix(1.5641333,0,0,1.5641333,78,343.30987)"
         clip-path="url(#clipPath231)" />
      <path
         id="path232"
         d="m 400.42,4.02 h 3.18 v 31.62 h -3.18 z"
         style="fill:#0070cd;fill-opacity:1;fill-rule:nonzero;stroke:none"
         transform="matrix(1.5641333,0,0,1.5641333,78,343.30987)"
         clip-path="url(#clipPath233)" />
      <path
         id="path234"
         d="m 118.17,5.85 14.9,15.08 -14.84,13.91 H 19.6 L 5.32,20.93 19.66,5.85 h 98.51 M 119.28,3.2 H 18.52 L 1.6,21 18.52,37.49 H 119.28 L 136.86,21 Z"
         style="fill:#bababb;fill-opacity:1;fill-rule:nonzero;stroke:none"
         transform="matrix(1.5641333,0,0,1.5641333,78,343.30987)"
         clip-path="url(#clipPath235)" />
      <path
         id="path236"
         d="m 403.33,5.85 14.86,15.06 -14.86,13.93 H 153.13 L 137.18,20.93 153.24,5.85 H 295.6 M 404.51,3.2 H 152.2 L 133.24,21 152.14,37.48 H 404.79 L 422,21 404.77,3.2 Z"
         style="fill:#bababb;fill-opacity:1;fill-rule:nonzero;stroke:none"
         transform="matrix(1.5641333,0,0,1.5641333,78,343.30987)"
         clip-path="url(#clipPath237)" />
    </g>
  </g>
</svg>
